<svg width="48" height="30" viewBox="0 0 48 30" fill="none" xmlns="http://www.w3.org/2000/svg">
<path fill-rule="evenodd" clip-rule="evenodd" d="M0 1.37615C0 0.616122 0.616122 0 1.37615 0H46.6239C47.3839 0 48 0.616122 48 1.37615V28.6239C48 29.3839 47.3839 30 46.6239 30H1.37615C0.616122 30 0 29.3839 0 28.6239V1.37615Z" fill="#ECEFF1"/>
<path fill-rule="evenodd" clip-rule="evenodd" d="M23.0933 11.3987L25.3242 10.8947V9L23.0933 9.49463V11.3987ZM28.2222 12.6774C28.5332 12.3787 29.0933 11.9493 29.9644 11.9493C31.5195 11.9493 32.9863 13.424 32.9951 16.1306C32.9951 19.0894 31.5464 20.4333 29.9556 20.4333C29.1733 20.4333 28.7021 20.088 28.3818 19.8453L28.373 22.4867L26.1509 22.9813V12.0986H28.1064L28.2222 12.6774ZM36.791 11.9493C38.8979 11.9493 40 13.8347 40 16.224C40 16.353 39.9941 16.5687 39.9888 16.7517L39.9868 16.835C39.9839 16.9332 39.9819 17.0143 39.9819 17.0547H35.6357C35.7334 18.156 36.4976 18.4734 37.3599 18.4734C38.2397 18.4734 38.9331 18.2773 39.5376 17.96V19.8267C38.9331 20.1814 38.1333 20.4333 37.0757 20.4333C34.9067 20.4333 33.3955 19.0146 33.3955 16.2053C33.3955 13.8347 34.6753 11.9493 36.791 11.9493ZM36.7822 13.844C36.2222 13.844 35.6089 14.2827 35.6089 15.3373H37.9023C37.9023 14.2827 37.3242 13.844 36.7822 13.844ZM25.3242 12.108H23.0933V20.2747H25.3242V12.108ZM20.7021 12.7986L20.5601 12.1079H18.6401V20.2747H20.8623V14.74C21.3867 14.0212 22.2759 14.152 22.5513 14.2546V12.1079C22.2666 11.996 21.2266 11.7906 20.7021 12.7986ZM14.0889 10.568L16.2578 10.0826L16.249 12.108H17.938V14.0959H16.249V17.4093C16.249 18.7906 17.6533 18.3613 17.938 18.24V20.1346C17.6445 20.3026 17.1113 20.4426 16.3823 20.4426C15.0669 20.4426 14.0801 19.4253 14.0801 18.0439L14.0889 10.568ZM10.249 14.4786C10.249 14.1146 10.5332 13.9747 11.0044 13.9747C11.6802 13.9747 12.5332 14.1893 13.209 14.572V12.3787C12.4712 12.0707 11.7422 11.9493 11.0044 11.9493C9.2002 11.9493 8 12.9387 8 14.5907C8 16.1456 9.23096 16.6123 10.2065 16.9823C10.8472 17.2252 11.3779 17.4264 11.3779 17.8667C11.3779 18.296 11.0225 18.436 10.5244 18.436C9.78662 18.436 8.84424 18.1187 8.09766 17.6893V19.9106C8.92432 20.2841 9.75977 20.4426 10.5244 20.4426C12.3735 20.4426 13.6445 19.4813 13.6445 17.8107C13.6392 16.0868 12.3359 15.6215 11.3457 15.2678C10.7388 15.0509 10.249 14.8761 10.249 14.4786ZM28.3823 17.9414C28.5957 18.1841 28.9067 18.38 29.4312 18.38C30.249 18.38 30.8003 17.4467 30.8003 16.196C30.8003 14.9734 30.2402 14.0214 29.4312 14.0214C28.9248 14.0214 28.6045 14.208 28.3735 14.4786L28.3823 17.9414Z" fill="url(#paint0_linear)"/>
<defs>
<linearGradient id="paint0_linear" x1="65.9924" y1="18.7981" x2="56.0073" y2="-9.68198" gradientUnits="userSpaceOnUse">
<stop stop-color="#03D4FF"/>
<stop offset="1" stop-color="#5433FF"/>
</linearGradient>
</defs>
</svg>
