<svg width="48" height="30" viewBox="0 0 48 30" fill="none" xmlns="http://www.w3.org/2000/svg">
<g id="icn-payment, paypal">
<path id="card" fill-rule="evenodd" clip-rule="evenodd" d="M0 1.37615C0 0.616122 0.616122 0 1.37615 0H46.6239C47.3839 0 48 0.616122 48 1.37615V28.6239C48 29.3839 47.3839 30 46.6239 30H1.37615C0.616122 30 0 29.3839 0 28.6239V1.37615Z" fill="#ECEFF1"/>
<g id="text + icon">
<g id="text">
<path id="l" fill-rule="evenodd" clip-rule="evenodd" d="M33.4709 19.2253L32.7884 23.5786C32.7751 23.6629 32.84 23.7392 32.9252 23.7392H33.6118C33.7255 23.7392 33.8224 23.6562 33.84 23.5436L34.5131 19.2685C34.5264 19.1843 34.4614 19.1079 34.3761 19.1079H33.6079C33.5395 19.1079 33.4814 19.1576 33.4709 19.2253Z" fill="#2890C3"/>
<path id="a" fill-rule="evenodd" clip-rule="evenodd" d="M31.422 22.204C31.3451 22.6601 30.9839 22.9664 30.5231 22.9664C30.2922 22.9664 30.1071 22.8919 29.9883 22.7508C29.8704 22.6111 29.8262 22.4118 29.8635 22.1902C29.9351 21.738 30.3022 21.422 30.756 21.422C30.9822 21.422 31.1658 21.4972 31.287 21.6395C31.409 21.7829 31.457 21.9832 31.422 22.204ZM32.5321 20.6501H31.7357C31.6675 20.6501 31.6094 20.6997 31.5986 20.7674L31.5637 20.9906L31.5079 20.9097C31.3355 20.6589 30.951 20.5748 30.5672 20.5748C29.6873 20.5748 28.9357 21.2433 28.7895 22.1808C28.7133 22.6485 28.8214 23.0954 29.086 23.4073C29.329 23.6939 29.6758 23.8132 30.089 23.8132C30.7983 23.8132 31.1916 23.3566 31.1916 23.3566L31.156 23.5784C31.1427 23.6627 31.2077 23.739 31.2931 23.739H32.0102C32.124 23.739 32.2207 23.6563 32.2385 23.5436L32.6691 20.8106C32.6824 20.7264 32.6172 20.6501 32.5321 20.6501Z" fill="#2890C3"/>
<path id="P" fill-rule="evenodd" clip-rule="evenodd" d="M27.753 20.6692C27.6621 21.2676 27.2062 21.2676 26.7651 21.2676H26.5142L26.6902 20.1503C26.7007 20.0828 26.7588 20.0331 26.827 20.0331H26.9422C27.2424 20.0331 27.5259 20.0331 27.6721 20.2044C27.7596 20.307 27.786 20.4592 27.753 20.6692ZM27.5609 19.1077H25.8977C25.7838 19.1077 25.6871 19.1907 25.6693 19.3033L24.9968 23.5784C24.9835 23.6627 25.0487 23.739 25.1337 23.739H25.9871C26.0667 23.739 26.1345 23.681 26.1469 23.6023L26.3377 22.3901C26.3553 22.2775 26.4523 22.1945 26.5659 22.1945H27.0921C28.1877 22.1945 28.8201 21.6631 28.9852 20.6096C29.0596 20.1492 28.9882 19.7872 28.7731 19.5338C28.5366 19.2552 28.1174 19.1077 27.5609 19.1077Z" fill="#2890C3"/>
<path id="y" fill-rule="evenodd" clip-rule="evenodd" d="M24.9111 20.6501H24.1106C24.034 20.6501 23.9624 20.6881 23.9195 20.7517L22.8152 22.382L22.3473 20.8154C22.3179 20.7173 22.2278 20.6501 22.1257 20.6501H21.339C21.244 20.6501 21.1771 20.7438 21.2077 20.8338L22.0891 23.4275L21.26 24.6001C21.1951 24.6921 21.2607 24.8194 21.3733 24.8194H22.1729C22.2486 24.8194 22.3196 24.7822 22.3629 24.7199L25.025 20.8682C25.0887 20.776 25.023 20.6501 24.9111 20.6501Z" fill="#28346A"/>
<path id="a_2" fill-rule="evenodd" clip-rule="evenodd" d="M19.5592 22.204C19.4822 22.6601 19.1211 22.9664 18.6603 22.9664C18.4293 22.9664 18.2443 22.8919 18.1255 22.7508C18.0078 22.6111 17.9634 22.4118 18.0007 22.1902C18.0723 21.738 18.4394 21.422 18.8932 21.422C19.1194 21.422 19.303 21.4972 19.4241 21.6395C19.5461 21.7829 19.5942 21.9832 19.5592 22.204ZM20.6693 20.6501H19.8729C19.8047 20.6501 19.7466 20.6997 19.7358 20.7674L19.7009 20.9906L19.6454 20.9097C19.4727 20.6589 19.0882 20.5748 18.7044 20.5748C17.8245 20.5748 17.0729 21.2433 16.9267 22.1808C16.8506 22.6485 16.9586 23.0954 17.2232 23.4073C17.4662 23.6939 17.813 23.8132 18.2262 23.8132C18.9356 23.8132 19.3288 23.3566 19.3288 23.3566L19.2932 23.5784C19.2799 23.6627 19.3449 23.739 19.4303 23.739H20.1474C20.2612 23.739 20.3579 23.6563 20.3757 23.5436L20.8063 20.8106C20.8196 20.7264 20.7544 20.6501 20.6693 20.6501Z" fill="#28346A"/>
<path id="P_2" fill-rule="evenodd" clip-rule="evenodd" d="M15.8902 20.6692C15.7993 21.2676 15.3434 21.2676 14.9023 21.2676H14.6514L14.8274 20.1503C14.8379 20.0828 14.896 20.0331 14.9642 20.0331H15.0794C15.3796 20.0331 15.6631 20.0331 15.8093 20.2044C15.8968 20.307 15.9232 20.4592 15.8902 20.6692ZM15.6981 19.1077H14.0349C13.9211 19.1077 13.8243 19.1907 13.8065 19.3033L13.1341 23.5784C13.1208 23.6627 13.1857 23.739 13.2709 23.739H14.0652C14.1788 23.739 14.2755 23.656 14.2933 23.5436L14.475 22.3901C14.4925 22.2775 14.5895 22.1945 14.7031 22.1945H15.2294C16.3249 22.1945 16.9573 21.6631 17.1224 20.6096C17.1968 20.1492 17.1254 19.7872 16.9104 19.5338C16.6738 19.2552 16.2546 19.1077 15.6981 19.1077Z" fill="#28346A"/>
</g>
<g id="icon">
<path id="P_3" fill-rule="evenodd" clip-rule="evenodd" d="M28.7426 5.02048C28.1195 4.30622 26.9931 4 25.5523 4H21.3704C21.0756 4 20.8251 4.21563 20.779 4.508L19.0377 15.6146C19.0031 15.8336 19.1717 16.032 19.3924 16.032H21.9741L22.6226 11.8958L22.6025 12.0254C22.6486 11.733 22.8972 11.5174 23.1917 11.5174H24.4185C26.8286 11.5174 28.7158 10.5328 29.267 7.68475C29.2834 7.60052 29.2975 7.51853 29.3098 7.43842C29.2402 7.40136 29.2402 7.40136 29.3098 7.43842C29.474 6.38575 29.3087 5.66924 28.7426 5.02048Z" fill="#28346A"/>
<path id="shadow" fill-rule="evenodd" clip-rule="evenodd" d="M29.6656 7.771C29.6529 7.85115 29.6392 7.93243 29.6228 8.01631C29.0723 10.8523 27.1878 11.8332 24.7811 11.8332H23.5556C23.2616 11.8332 23.0133 12.048 22.9676 12.3391L22.1621 17.4609C22.132 17.6518 22.2792 17.8248 22.4717 17.8248H24.6451C24.9023 17.8248 25.1212 17.6369 25.1613 17.3822L25.1825 17.2711L25.5921 14.6674L25.6185 14.5235C25.6587 14.2688 25.8776 14.0809 26.1348 14.0809H26.4601C28.5653 14.0809 30.2138 13.2231 30.6955 10.742C30.8966 9.70518 30.7926 8.83949 30.2607 8.23143C30.0993 8.04725 29.899 7.89514 29.6656 7.771Z" fill="#2890C3"/>
<path id="fill" fill-rule="evenodd" clip-rule="evenodd" d="M28.723 7.17365C28.639 7.14904 28.5524 7.12668 28.4632 7.10692C28.374 7.08716 28.2818 7.06963 28.1874 7.05435C27.8566 7.00066 27.4953 6.97531 27.1073 6.97531H23.8337C23.7531 6.97531 23.6765 6.99358 23.6081 7.02676C23.4568 7.09946 23.345 7.24262 23.3175 7.41822L22.6216 11.8432L22.6016 11.9722C22.6473 11.681 22.8956 11.4663 23.1896 11.4663H24.4151C26.8218 11.4663 28.7063 10.4858 29.2568 7.64937C29.2731 7.56548 29.2869 7.48421 29.2995 7.40405C29.1602 7.33023 29.0092 7.26648 28.8468 7.21242C28.8063 7.199 28.765 7.18595 28.723 7.17365Z" fill="#1F274F"/>
</g>
</g>
</g>
</svg>
